{
  "title": "Maggie.2015.720p.WEB-DL.XviD.AC3-RARBG",
  "uid": 11897158,
  "size": 2815144606,
  "categoryP": "video",
  "categoryS": "hd___movies",
  "magnet": "?xt=urn:btih:81a7a0bc4723e35006243eccfd4a7ed0f9bfda40&amp;dn=Maggie.2015.720p.WEB-DL.XviD.AC3-RARBG&amp;tr=udp%3A%2F%2Ftracker.openbittorrent.com%3A80&amp;tr=udp%3A%2F%2Fopen.demonii.com%3A1337&amp;tr=udp%3A%2F%2Ftracker.coppersurfer.tk%3A6969&amp;tr=udp%3A%2F%2Fexodus.desync.com%3A6969",
  "seeders": 37,
  "leechers": 13,
  "uploader": "vickey1992",
  "files": 5,
  "time": 1431196889,
  "description": "Format                                   : AVI\nFormat/Info                              : Audio Video Interleave\nFormat profile                           : OpenDML\nFile size                                : 2.62 GiB\nDuration                                 : 1h 35mn\nOverall bit rate                         : 3 946 Kbps\nMovie name                               : RARBG.COM - Maggie.2015.720p.WEB-DL.XviD.AC3-RARBG\nWriting library                          : VirtualDub build 35491/release\nComment                                  : RARBG.COM - Maggie.2015.720p.WEB-DL.XviD.AC3-RARBG\n\nVideo\nID                                       : 0\nFormat                                   : MPEG-4 Visual\nFormat profile                           : Simple@L5\nFormat settings, BVOP                    : No\nFormat settings, QPel                    : No\nFormat settings, GMC                     : No warppoints\nFormat settings, Matrix                  : Default (H.263)\nCodec ID                                 : XVID\nCodec ID/Hint                            : XviD\nDuration                                 : 1h 35mn\nBit rate                                 : 3 551 Kbps\nWidth                                    : 1 280 pixels\nHeight                                   : 530 pixels\nDisplay aspect ratio                     : 2.40:1\nFrame rate                               : 23.976 fps\nColor space                              : YUV\nChroma subsampling                       : 4:2:0\nBit depth                                : 8 bits\nScan type                                : Progressive\nCompression mode                         : Lossy\nBits/(Pixel*Frame)                       : 0.218\nStream size                              : 2.36 GiB (90%)\nWriting library                          : Lavc56.34.100\n\nAudio\nID                                       : 1\nFormat                                   : AC-3\nFormat/Info                              : Audio Coding 3\nMode extension                           : CM (complete main)\nFormat settings, Endianness              : Big\nCodec ID                                 : 2000\nDuration                                 : 1h 35mn\nBit rate mode                            : Constant\nBit rate                                 : 384 Kbps\nChannel(s)                               : 6 channels\nChannel positions                        : Front: L C R, Side: L R, LFE\nSampling rate                            : 48.0 KHz\nBit depth                                : 16 bits\nCompression mode                         : Lossy\nStream size                              : 261 MiB (10%)\nAlignment                                : Aligned on interleaves\nInterleave, duration                     : 42 ms (1.00 video frame)\nInterleave, preload duration             : 512 ms\nNotes:\nGreetz to all!",
  "parsed": {
    "xt": "urn:btih:81a7a0bc4723e35006243eccfd4a7ed0f9bfda40",
    "dn": "Maggie.2015.720p.WEB-DL.XviD.AC3-RARBG",
    "tr": [
      "udp://exodus.desync.com:6969",
      "udp://open.demonii.com:1337",
      "udp://tracker.coppersurfer.tk:6969",
      "udp://tracker.openbittorrent.com:80"
    ],
    "infoHash": "81a7a0bc4723e35006243eccfd4a7ed0f9bfda40",
    "infoHashBuffer": {
      "type": "Buffer",
      "data": [
        129,
        167,
        160,
        188,
        71,
        35,
        227,
        80,
        6,
        36,
        62,
        204,
        253,
        74,
        126,
        208,
        249,
        191,
        218,
        64
      ]
    },
    "name": "Maggie.2015.720p.WEB-DL.XviD.AC3-RARBG",
    "announce": [
      "udp://exodus.desync.com:6969",
      "udp://open.demonii.com:1337",
      "udp://tracker.coppersurfer.tk:6969",
      "udp://tracker.openbittorrent.com:80"
    ],
    "urlList": []
  },
  "previous": 11,
  "peers": 8,
  "last_updated": "2016-12-27T05:22:29.592Z"
}